<!--?xml version="1.0" standalone="no"?-->
              <svg id="sw-js-blob-svg" viewBox="0 0 100 100" xmlns="http://www.w3.org/2000/svg" version="1.1">
                    <defs> 
                        <linearGradient id="sw-gradient" x1="0" x2="1" y1="1" y2="0">
                            <stop id="stop1" stop-color="rgba(250, 250, 250, 1)" offset="0%"></stop>
                            <stop id="stop2" stop-color="rgba(250, 250, 250, 1)" offset="100%"></stop>
                        </linearGradient>
                    </defs>
                <path fill="url(#sw-gradient)" d="M26.1,-30C33.9,-30.2,40.4,-22.7,42.7,-14.2C45.1,-5.6,43.4,3.9,40.1,12.7C36.8,21.4,31.9,29.3,25,28.9C18,28.5,9,19.7,0.6,18.8C-7.8,18,-15.5,25,-15.7,23.3C-15.9,21.5,-8.5,10.9,-10.3,3.7C-12,-3.4,-23,-7.2,-24.2,-9.3C-25.5,-11.3,-17,-11.5,-11.3,-12C-5.7,-12.5,-2.8,-13.3,3.1,-17.7C9.1,-22,18.3,-29.9,26.1,-30Z" width="100%" height="100%" transform="translate(50 50)" stroke-width="0" style="transition: 0.3s;" stroke="url(#sw-gradient)"></path>
              </svg>